<?xml version="1.0" encoding="UTF-8"?><svg id="a" xmlns="http://www.w3.org/2000/svg" viewBox="0 0 479 105"><defs><style>.b{fill:#fff;}</style></defs><path class="b" d="M150.01,105H0C0,70,0,35,0,0,11.33,0,22.67,0,34,0c-6.24,3.25-13.53,5.36-18.5,9.98C3.89,20.76,2.34,35.13,4.8,50.08c3.17,19.24,17.19,30.18,36.67,28.85,14.72-1.01,27.09-12.72,27.77-26.35-3.15-1.24-4.75,.43-5.49,3.16-3.5,12.95-15.02,20.15-31.43,18.23-14.26-1.67-26.17-19.59-21.95-33.31,2.05,0,4.2,0,6.35,0,16.48,0,32.97,.06,49.45-.11,1.47-.02,4.19-1.56,4.2-2.41,.07-9.63-1.51-18.8-8.05-26.58C57.14,5.41,50.23,2.52,43,0,128,0,213.01,0,298.01,0c-1.43,.38-2.84,.82-4.29,1.13-8.95,1.86-16.22,6.51-20.6,14.45-7.93,14.37-8.7,29.56-2.63,44.75,4.8,12,16.18,18.66,29.87,18.56,13.74-.1,24.16-5.57,29.72-18.55,.99-2.3,1.31-7.3,.84-7.45-4.36-1.32-4.31,2.89-5.4,5.32-5.05,11.36-15.89,17.44-27.56,16.35-15.13-1.41-24.96-13.59-25.93-29.85-.21-3.55,1.41-4.12,4.43-4.1,17.31,.09,34.62,.04,51.93,.04,1.75,0,3.5,0,5.56,0-.44-3.7-.75-6.66-1.15-9.61-1.95-14.31-8.39-25.11-23.13-29.31C307.15,1.03,304.56,.57,302.01,0c22.33,0,44.67,0,67,0-4.37,1.52-8.86,2.77-13.08,4.62-6.78,2.98-9.23,8.78-9.06,15.83,.16,6.91,2.84,12.29,9.87,14.58,11.04,3.6,22.1,7.16,33.17,10.7,5.09,1.63,8.2,5.05,8.96,10.29,.77,5.3-.72,10.04-5.17,13.26-12.98,9.38-40.68,7.31-44.52-14.69-.08-.45-.4-.86-.7-1.48l-3.77,.32c.13,8.65,3.76,16.38,10.54,20.01,13.37,7.17,27.13,7.45,40.53,.04,6.9-3.82,9.7-11.26,8.06-19.89-1.41-7.44-6.11-11.81-13.43-13.74-10.11-2.67-20.18-5.51-30.21-8.47-5.22-1.54-7.81-5.47-8.16-10.78-.35-5.38,2.11-9.26,6.84-11.74,8.4-4.41,17.11-4.96,26.08-2.03,8.16,2.66,11.27,9.18,12.38,16.78,3.53,.98,4.7-.24,4.32-3.4-.9-7.52-4.41-13.22-11.5-16.25C386.54,2.41,382.73,1.3,379.01,0,399.35,0,419.68,0,440.02,0c-4.48,1.67-9.09,3.05-13.4,5.07-6.72,3.14-8.95,9.02-8.61,16.06,.33,6.76,3.24,11.83,9.98,14,10.9,3.51,21.82,6.96,32.77,10.35,5.29,1.64,8.62,4.96,9.29,10.52,.74,6.18-1.47,11.06-6.88,14.4-16.2,10.02-35.42,3.62-42.1-14.27-1.1-2.93-2.38-3.61-5.02-2.59-.61,9.23,4.15,17.69,12.43,21.47,11.13,5.08,22.5,5.51,33.92,.91,8.45-3.4,13.13-10.14,12.88-18.3-.26-8.64-5.2-15.1-14.18-17.74-9.4-2.76-18.94-5.05-28.39-7.66-5.91-1.64-9.31-5.74-9.7-11.3-.37-5.24,2.69-10.79,7.86-12.79,3.98-1.54,8.28-2.77,12.51-3.06,13.68-.95,20.02,3.63,24.61,16.52,.45,1.26,2.65,1.9,4.91,3.42-.02-10.06-3.2-16.68-10.8-20.43-4.12-2.03-8.71-3.08-13.09-4.57,9.99,0,19.98,0,29.98,0V105H156.01v-40.38c2.03,2.41,3.25,3.97,4.59,5.42,13.38,14.47,41.86,11.39,51.11-5.84,8.46-15.75,8.13-31.75,.18-47.83-10.22-20.67-44.53-21.24-53.92-1.17-.46,.98-.83,2-1.25,3.01l-1.74-1.21V2.95c-5.15-1.87-4.87,1.21-4.87,4.2-.02,32.62-.07,65.24-.11,97.86ZM107.31,33.81c-6.98-9.4-13.38-18.09-19.87-26.71-2.5-3.33-5.32-6.18-10.62-4.43,8.15,10.64,15.89,21.04,24,31.14,2.51,3.12,2.3,5.11-.09,8.07-5.12,6.34-9.85,12.99-14.73,19.52-3.72,4.98-7.42,9.97-11.49,15.44,4.67,.78,7.28-.69,9.44-3.67,6.54-9.03,13.19-17.98,19.82-26.94,1.03-1.39,2.17-2.69,3.56-4.41,7.85,10.83,15.3,21.03,22.68,31.28,2.31,3.21,5.04,4.95,9.73,3.57-8.56-11.42-16.63-22.59-25.17-33.38-3.21-4.05-3.19-6.83,.05-10.83,7.82-9.65,15.17-19.69,22.96-29.91-4.56-1.2-7.21,.43-9.48,3.51-6.71,9.09-13.54,18.09-20.79,27.75ZM235.99,2.92c-4.96-1.68-4.81,1.09-4.81,3.98,.03,21.97,.01,43.93,.03,65.9,0,1.29,.19,2.58,.3,3.95h4.54c0-2.04,0-3.84,0-5.64,0-11.98-.04-23.96,0-35.94,.04-15.22,10.9-27.12,25.99-28.19,3.47-.25,4.44-1.33,3.08-4.65-11.91-.17-21.4,4.46-29.13,15.45V2.92Z"/><path d="M150.01,105c.04-32.62,.09-65.24,.11-97.86,0-2.99-.28-6.07,4.87-4.2v14.06l1.74,1.21c.41-1,.79-2.02,1.25-3.01,9.38-20.07,43.7-19.5,53.92,1.17,7.95,16.08,8.27,32.07-.18,47.83-9.25,17.23-37.72,20.3-51.11,5.84-1.34-1.45-2.56-3.01-4.59-5.42v40.38h-6Zm63.24-64.57c-.67-8.7-2.56-16.77-7.38-23.84-6.07-8.92-14.77-12.69-25.45-11.38-10.88,1.33-18.64,7.12-22.13,17.59-3.09,9.27-3.57,18.81-1.69,28.55,2.54,13.16,10.7,21.56,22.88,22.77,14.65,1.45,25.13-4.61,29.84-17.82,1.82-5.11,2.64-10.57,3.92-15.87Z"/><path d="M43,0c7.23,2.52,14.14,5.41,19.31,11.56,6.54,7.78,8.12,16.94,8.05,26.58,0,.85-2.72,2.39-4.2,2.41-16.48,.17-32.97,.11-49.45,.11-2.15,0-4.3,0-6.35,0-4.22,13.72,7.69,31.64,21.95,33.31,16.41,1.92,27.93-5.27,31.43-18.23,.74-2.73,2.34-4.41,5.49-3.16-.68,13.63-13.05,25.34-27.77,26.35-19.48,1.33-33.5-9.6-36.67-28.85-2.46-14.94-.91-29.31,10.71-40.1C20.47,5.36,27.77,3.25,34,0h9Zm22.19,35.71c-.74-11.93-4.32-21.76-14.72-27.34-9.78-5.24-19.83-4.26-28.77,2.18-8.33,5.99-12.06,14.58-11.91,25.16h55.4Z"/><path d="M302.01,0c2.55,.57,5.14,1.03,7.65,1.74,14.75,4.2,21.19,15,23.13,29.31,.4,2.95,.71,5.9,1.15,9.61-2.06,0-3.81,0-5.56,0-17.31,0-34.62,.05-51.93-.04-3.02-.02-4.64,.55-4.43,4.1,.97,16.26,10.8,28.44,25.93,29.85,11.67,1.09,22.51-5,27.56-16.35,1.08-2.43,1.04-6.65,5.4-5.32,.47,.14,.15,5.14-.84,7.45-5.56,12.98-15.98,18.45-29.72,18.55-13.69,.1-25.07-6.56-29.87-18.56-6.07-15.19-5.3-30.39,2.63-44.75,4.38-7.94,11.65-12.59,20.6-14.45,1.45-.3,2.86-.75,4.29-1.13h4Zm-29.36,35.05c.26,.2,.52,.56,.79,.57,17.32,.09,34.64,.19,51.95,.06,.82,0,2.37-2.13,2.31-3.19-.89-16.07-13.1-28.13-27.37-27.26-16.61,1.01-28.29,13.59-27.69,29.82Z"/><path d="M449.02,0c4.38,1.49,8.98,2.55,13.09,4.57,7.6,3.75,10.78,10.37,10.8,20.43-2.27-1.52-4.46-2.15-4.91-3.42-4.6-12.88-10.93-17.46-24.61-16.52-4.23,.29-8.53,1.53-12.51,3.06-5.17,1.99-8.23,7.55-7.86,12.79,.39,5.55,3.79,9.66,9.7,11.3,9.45,2.62,18.99,4.9,28.39,7.66,8.98,2.64,13.91,9.1,14.18,17.74,.25,8.16-4.43,14.9-12.88,18.3-11.42,4.6-22.79,4.17-33.92-.91-8.28-3.78-13.04-12.23-12.43-21.47,2.64-1.02,3.92-.35,5.02,2.59,6.68,17.89,25.9,24.29,42.1,14.27,5.41-3.34,7.62-8.22,6.88-14.4-.67-5.56-4-8.88-9.29-10.52-10.94-3.39-21.86-6.84-32.77-10.35-6.74-2.17-9.66-7.24-9.98-14-.34-7.04,1.89-12.92,8.61-16.06C430.93,3.05,435.54,1.67,440.02,0h9Z"/><path d="M379.01,0c3.72,1.3,7.53,2.41,11.14,3.96,7.09,3.03,10.6,8.73,11.5,16.25,.38,3.17-.8,4.39-4.32,3.4-1.11-7.6-4.22-14.12-12.38-16.78-8.96-2.93-17.68-2.38-26.08,2.03-4.73,2.48-7.19,6.36-6.84,11.74,.35,5.32,2.94,9.24,8.16,10.78,10.03,2.96,20.1,5.81,30.21,8.47,7.32,1.93,12.02,6.3,13.43,13.74,1.64,8.63-1.16,16.08-8.06,19.89-13.4,7.41-27.16,7.12-40.53-.04-6.77-3.63-10.41-11.35-10.54-20.01l3.77-.32c.3,.62,.62,1.03,.7,1.48,3.84,22,31.54,24.07,44.52,14.69,4.45-3.22,5.94-7.96,5.17-13.26-.76-5.24-3.87-8.66-8.96-10.29-11.06-3.54-22.12-7.1-33.17-10.7-7.03-2.29-9.7-7.67-9.87-14.58-.17-7.05,2.29-12.85,9.06-15.83C360.15,2.77,364.64,1.52,369.01,0h10Z"/><path d="M107.31,33.81c7.25-9.66,14.08-18.66,20.79-27.75,2.27-3.08,4.92-4.71,9.48-3.51-7.79,10.22-15.14,20.26-22.96,29.91-3.24,4-3.26,6.78-.05,10.83,8.54,10.79,16.61,21.96,25.17,33.38-4.7,1.38-7.43-.37-9.73-3.57-7.38-10.25-14.82-20.46-22.68-31.28-1.39,1.72-2.54,3.02-3.56,4.41-6.63,8.96-13.28,17.91-19.82,26.94-2.16,2.98-4.77,4.45-9.44,3.67,4.07-5.47,7.78-10.46,11.49-15.44,4.88-6.53,9.61-13.19,14.73-19.52,2.39-2.96,2.6-4.95,.09-8.07-8.11-10.1-15.84-20.5-24-31.14,5.29-1.75,8.12,1.1,10.62,4.43,6.48,8.63,12.88,17.31,19.87,26.71Z"/><path d="M235.99,2.92v14.85c7.73-10.99,17.23-15.62,29.13-15.45,1.35,3.32,.39,4.4-3.08,4.65-15.09,1.07-25.95,12.97-25.99,28.19-.03,11.98,0,23.96,0,35.94,0,1.8,0,3.6,0,5.64h-4.54c-.11-1.36-.3-2.65-.3-3.95-.02-21.97,0-43.93-.03-65.9,0-2.89-.15-5.66,4.81-3.98Z"/><path class="b" d="M213.24,40.43c-1.28,5.3-2.1,10.76-3.92,15.87-4.71,13.21-15.19,19.27-29.84,17.82-12.18-1.21-20.34-9.6-22.88-22.77-1.88-9.74-1.4-19.27,1.69-28.55,3.49-10.48,11.25-16.26,22.13-17.59,10.67-1.31,19.38,2.46,25.45,11.38,4.82,7.07,6.71,15.14,7.38,23.84Z"/><path class="b" d="M65.19,35.71H9.79c-.15-10.59,3.58-19.17,11.91-25.16,8.95-6.44,19-7.42,28.77-2.18,10.4,5.58,13.97,15.42,14.72,27.34Z"/><path class="b" d="M272.65,35.05c-.6-16.23,11.08-28.8,27.69-29.82,14.27-.87,26.48,11.18,27.37,27.26,.06,1.07-1.5,3.19-2.31,3.19-17.32,.13-34.64,.02-51.95-.06-.26,0-.53-.37-.79-.57Z"/></svg>