<?xml version="1.0" encoding="UTF-8"?><svg id="a" xmlns="http://www.w3.org/2000/svg" viewBox="0 0 360 366"><defs><style>.b{fill:#0074c4;}.c{fill:#005995;}.d{fill:#fefefe;}</style></defs><path class="b" d="M1.25,.09C119.31,.09,237.36,.12,355.41,0c3.75,0,4.59,.84,4.59,4.59-.11,118.94-.11,237.88,0,356.82,0,3.75-.84,4.6-4.59,4.59-118.05-.12-236.1-.09-354.16-.09-.94-1.73-.48-3.59-.48-5.39-.03-118.34-.03-236.69,0-355.03,0-1.8-.46-3.66,.48-5.39Z"/><path class="c" d="M1.25,.09V365.91c-2.09-1.11-.94-3.03-.94-4.49-.07-69.7-.06-139.41-.06-209.11,0-49.41-.01-98.81,.06-148.22,0-1.29-1.12-3.09,.94-3.99Z"/><path class="d" d="M291.03,317.04c-14.9,.4-28.41-2.42-41.44-8.04-3.84-1.66-5.13-3.85-4.57-7.97,.98-7.24,1.6-14.53,2.14-21.82,.24-3.26,1-4.01,4.08-2.23,10.91,6.29,22.54,10.31,35.21,11.54,7.29,.71,13.95-.59,20.12-4.14,9.41-5.43,9.79-17.5,.28-22.43-8.89-4.61-18.29-7.86-27.4-11.88-5.93-2.62-11.92-5.23-17.24-8.91-14.23-9.83-18.81-23.87-16.94-40.52,2.85-25.29,22.37-37.14,43.16-39.73,17.03-2.12,33.42,.3,49.53,5.81,3.14,1.08,4.42,2.26,3.54,6.03-1.61,6.94-2.63,14.06-3.44,21.15-.52,4.54-1.91,5.08-5.89,3.03-10.95-5.64-22.59-8.7-35.04-8.01-4.57,.26-8.82,1.45-12.65,4.03-7.61,5.12-7.7,15.79-.17,20.99,9.57,6.61,20.98,9.08,31.3,14,5.54,2.64,11.33,4.86,16.18,8.75,15.03,12.03,18.25,27.99,14.43,45.82-3.59,16.79-14.97,26.51-30.81,31.49-8.15,2.56-16.56,3.55-24.4,3.05Z"/><path class="d" d="M241.15,301.01c.45,2.09-1.26,2.3-2.28,2.91-6.57,3.92-13.27,7.62-19.75,11.69-2.78,1.74-3.77,1.01-5.07-1.68-8.53-17.67-17.34-35.2-25.77-52.92-1.82-3.83-3.06-4.66-7.18-2.53-36.01,18.67-72.2,36.98-108.21,55.65-3.99,2.07-5.1,1.14-6.5-2.54-2.71-7.14-5.69-14.21-8.96-21.11-1.66-3.51-.99-4.98,2.46-6.73,35.14-17.81,70.19-35.82,105.26-53.78,.89-.45,1.74-1.02,2.67-1.34,3.07-1.04,3.37-2.55,1.88-5.49-7.12-14.1-13.86-28.39-21.01-42.47-1.49-2.93-1.02-4.07,1.7-5.55,6.57-3.58,13.01-7.4,19.39-11.31,2.27-1.4,3.39-1.63,4.77,1.19,21.86,44.84,43.84,89.61,65.79,134.4,.29,.6,.58,1.19,.79,1.63Z"/></svg>