<?xml version="1.0" encoding="UTF-8"?><svg id="a" xmlns="http://www.w3.org/2000/svg" viewBox="0 0 407.67 906.82"><defs><style>.b{fill:#599636;}.c{fill:#6cac48;}.d{fill:#c2bfbf;}</style></defs><path class="c" d="M186.42,797.31c-.64-1.98-2.33-3-3.85-4.17-40.92-31.55-75.74-68.91-105.36-111.14-26.1-37.21-46.11-77.49-59.65-120.91-3.51-11.25-5.15-22.93-7-34.55-3.8-23.83-6.53-47.79-8.62-71.83-.98-11.28-1.77-22.58-1.92-33.9-.23-16.27,1.7-32.42,3.66-48.52,3.32-27.23,8.55-54.1,15.82-80.56,17.66-64.22,46.48-122.95,86.81-175.98,19-24.99,40.38-47.75,64.32-68.09,4.66-3.96,9.17-8.07,13.34-12.54,8.41-9.02,13.58-19.48,14.15-31.97,.02-.45,.02-.9,.08-1.34,.13-.94,.51-1.82,1.57-1.81,1.23,.01,1.14,1.13,1.29,1.98,.05,.29,.06,.59,.08,.89,1.79,5.23,2.04,10.63,2.15,16.12,.93,47.65,.15,95.32,1.09,142.96,.73,37.24-.37,74.48,.8,111.68,1.2,38.13-.28,76.27,.91,114.36,1.17,37.39-.3,74.78,.88,112.13,1.2,38.13-.2,76.26,.93,114.36,.68,22.64,.46,45.26,.62,67.89-.15,1.93-.32,3.78-2.08,5.16-1.29,1.01-1.09,2.62-1.31,4.18-1.12,7.89,0,15.81-.75,23.73-1.58,16.6-3.82,33.08-6.99,49.44-1.66,8.59-2.23,17.48-5.98,25.56-1.18,2.54-1.52,5.9-4.99,6.85Z"/><path class="b" d="M206.24,682.88c.03-18.32,.66-36.67-.04-54.97-1.3-33.96,.07-67.93-.83-101.87-1.1-41.41,.04-82.83-1-124.21-.92-36.35,.23-72.7-.83-109.02-1.14-39.03,.19-78.06-.93-117.06-1.06-36.79,.13-73.59-.88-110.36-.53-19.21-.47-38.41-.68-57.62-.02-1.64,.08-3.27,.12-4.91,1.22,1.16,1.77,2.74,2.53,4.17,5.69,10.63,11.52,21.2,16.97,31.96,5.99,11.83,13.87,22.19,23.15,31.56,8.8,8.89,17.42,17.96,25.87,27.19,42.91,46.89,75.81,100.03,99.3,159.03,11.19,28.1,21.1,56.63,27.79,86.19,7.56,33.4,11.07,67.22,10.91,101.47-.27,58.15-10.52,114.3-33.07,168.04-16.14,38.45-37.78,73.59-64.13,105.85-17.57,21.51-36.63,41.55-58.52,58.77-4.79,3.77-9.59,7.54-14.7,10.9-2.22,.69-3.96-.16-5.75-1.46-8.1-5.89-12.2-14.54-15.66-23.41-6.98-17.92-9.48-36.79-10.8-55.85-.57-8.17-.44-16.33,1.21-24.4Z"/><path class="d" d="M206.24,682.88c-.02,24.6,2.5,48.88,9.3,72.6,1.56,5.44,3.76,10.63,6.35,15.65,3.33,6.44,7.57,12.06,14.09,15.64,.5,.27,.85,.81,1.26,1.23-1.6,2.68-3.2,5.36-4.8,8.05-5.13,8.64-7,18.21-8.2,28.03-.74,6.08-1.04,12.14-.99,18.25,.09,10.42,.13,20.83,0,31.25-.12,8.94,.31,17.84,1.17,26.73,.09,.89,.21,1.78,.18,2.67-.17,3.71-1.86,4.77-5.13,3.05-4.52-2.37-9.56-3.21-14.25-5.11-5.23-2.12-5.8-2.44-5.73-8.08,.18-13.26-.64-26.46-1.91-39.65-1.72-17.81-4.74-35.35-10.24-52.41-.36-1.13-.61-2.29-.91-3.45,.34-1.13,.07-2.36,.73-3.46,3.87-6.38,5.19-13.57,6.47-20.77,3.03-17,6.06-34,7.81-51.2,1.05-10.23,1.33-20.51,2.31-30.73,.27-2.87-.09-6.05,2.49-8.28Z"/></svg>