<?xml version="1.0" encoding="UTF-8"?><svg id="a" xmlns="http://www.w3.org/2000/svg" viewBox="0 0 173.84 150.08"><defs><style>.b{fill:#007efe;}</style></defs><path class="b" d="M.14,44.48c0-12.94,0-25.88,0-38.82C.15,2.56,1.44,.74,3.97,.12c1.47-.36,2.74,.14,3.99,.85,12.58,7.23,25.17,14.45,37.76,21.67,4.39,2.52,8.82,4.97,13.16,7.58,2.3,1.38,4.34,1.29,6.63-.04C82.29,20.5,99.1,10.86,115.91,1.21c1.01-.58,2.01-1.16,3.21-1.21,2.46-.1,4.62,1.72,4.92,4.18,.08,.62,.08,1.25,.08,1.88,0,25.59-.02,51.17,.04,76.76,0,2.9-1.04,4.76-3.57,6.19-8.57,4.82-17.06,9.8-25.6,14.67-1.86,1.06-3.14,2.45-3.1,4.67,.03,2.15,1.29,3.51,3.11,4.52,4.67,2.61,9.33,5.25,13.96,7.93,1.94,1.13,3.79,1.13,5.73,0,10.44-6.02,20.9-12.01,31.36-17.99,2.01-1.15,2.9-2.79,2.89-5.1-.02-8.74,.07-17.48,.03-26.21-.01-2.64,.97-4.46,3.32-5.75,4.61-2.53,9.12-5.22,13.69-7.82,4.08-2.33,7.84-.18,7.84,4.48,0,16.51,0,33.02,.02,49.53,0,2.31-.94,3.93-2.94,5.07-18.7,10.71-37.39,21.44-56.07,32.18-2.04,1.18-3.94,1.17-6-.01-14.59-8.38-29.2-16.72-43.82-25.05-1.84-1.05-2.86-2.53-2.86-4.67,0-8.16,.02-16.32-.03-24.48,0-1.02,.63-1.3,1.29-1.68,11.5-6.6,22.99-13.21,34.51-19.77,.9-.51,1.28-1.04,1.28-2.12-.02-7.77,.06-15.55,.07-23.32,0-3.68-2.64-5.98-5.94-5.27-.77,.17-1.43,.57-2.09,.96-8.57,4.93-17.15,9.82-25.68,14.82-2.34,1.37-4.4,1.4-6.76,.02-8.61-5.05-17.29-9.97-25.94-14.96-1.11-.64-2.24-1.15-3.55-.99-2.57,.31-4.32,2.26-4.35,4.95-.04,3.67-.01,7.34-.01,11.01,0,11.1-.15,22.21,.07,33.31,.09,4.49-4.06,7.2-8.1,4.66-4.57-2.87-9.34-5.42-14.04-8.07C.91,87.44,0,85.84,0,83.58c.02-13.03,.01-26.07,.01-39.1H.14Z"/><path class="b" d="M149.71,22.46c0-2.75,.04-5.5-.01-8.25-.05-2.2,.86-3.77,2.74-4.89,4.56-2.7,9.09-5.46,13.65-8.16,3.86-2.29,7.72-.11,7.73,4.35,.02,5.6-.01,11.2,.01,16.8,0,2.13-.87,3.69-2.7,4.77-4.6,2.74-9.17,5.52-13.78,8.24-3.79,2.24-7.6,.08-7.65-4.31-.03-2.85,0-5.7,0-8.54Z"/></svg>