<?xml version="1.0" encoding="UTF-8"?><svg id="a" xmlns="http://www.w3.org/2000/svg" viewBox="0 0 575.61 575.43"><defs><style>.b{fill:#4e4e4e;}.c{fill:#f8ac00;}</style></defs><path class="c" d="M180.3,90.09c0,25.12-.41,50.25,.19,75.36,.25,10.57-2.02,15.25-14,15.1-50.85-.61-101.7-.48-152.55-.07-9.91,.08-14.03-2.11-13.92-13.07C.53,115.93,.55,64.46,0,13-.11,2.02,3.98,0,13.81,.08,64.66,.49,115.52,.63,166.36,0c11.71-.14,14.5,3.74,14.17,14.73-.74,25.1-.23,50.23-.23,75.35Z"/><path class="c" d="M485.93,180.28c-25.18,0-50.36-.38-75.53,.18-10.41,.23-15.44-1.71-15.29-13.89,.62-50.96,.51-101.94,.05-152.91-.09-10.36,2.89-13.71,13.46-13.61,51.58,.48,103.17,.47,154.75,0,10.04-.09,12.25,3.46,12.18,12.74-.37,51.58-.48,103.17,.06,154.75,.12,11.24-4.45,13.11-14.15,12.91-25.17-.52-50.35-.17-75.53-.17Z"/><path class="b" d="M89.73,575.21c-25.75,0-51.5-.41-77.24,.21-9.62,.23-12.5-2.56-12.41-12.31,.46-52.1,.37-104.21,.07-156.32-.05-8.55,2.28-11.8,11.33-11.74,52.1,.36,104.21,.37,156.32,0,9.56-.07,12.74,2.88,12.67,12.57-.39,52.1-.36,104.21-.01,156.32,.06,8.93-2.98,11.58-11.64,11.43-26.35-.44-52.72-.16-79.08-.16Z"/><path class="b" d="M395.39,486.81c0-26.35,.33-52.71-.17-79.05-.18-9.54,2.92-12.79,12.6-12.72,52.09,.37,104.18,.35,156.27,.01,8.95-.06,11.48,3.05,11.43,11.68-.3,52.7-.29,105.41,0,158.11,.04,7.92-2.32,10.57-10.41,10.52-52.7-.3-105.41-.42-158.11,.07-10.58,.1-11.89-4.52-11.75-13.24,.4-25.12,.14-50.25,.14-75.38Z"/><path class="c" d="M484.9,198.71c25.74,0,51.49,.44,77.22-.22,10.41-.27,13.58,2.93,13.48,13.42-.49,50.86-.43,101.73-.04,152.6,.08,9.86-2.03,14.15-13.05,14.03-50.86-.51-101.74-.47-152.6-.03-11,.1-14.9-3.09-14.77-14.56,.55-50.25,.53-100.51,.01-150.76-.11-11.07,2.9-15.08,14.38-14.73,25.1,.76,50.25,.24,75.37,.24Z"/><path class="c" d="M198.32,88.74c0-24.54,.69-49.11-.29-73.62-.5-12.53,4.06-15.22,15.67-15.09,49.69,.56,99.4,.53,149.09,.01,10.84-.11,14.98,2.25,14.83,14.08-.64,50.92-.51,101.85-.08,152.77,.09,10.52-3.4,13.67-13.77,13.58-50.31-.44-100.63-.49-150.93,.03-11.12,.11-15.07-3.05-14.75-14.47,.72-25.75,.23-51.53,.23-77.3Z"/><path class="b" d="M377.44,287.74c0,25.13-.7,50.3,.29,75.39,.5,12.67-4.24,15.41-15.83,15.29-49.65-.51-99.31-.47-148.97-.02-10.78,.1-15.06-2.47-14.92-14.22,.59-50.88,.56-101.77,.02-152.64-.12-10.97,3.98-13.13,13.88-13.05,50.88,.4,101.77,.48,152.64-.04,10.94-.11,13.3,3.96,13.07,13.89-.57,25.12-.19,50.27-.19,75.4Z"/><path class="b" d="M287.77,575.21c-25.74,0-51.48-.38-77.2,.2-9.59,.22-12.57-2.72-12.49-12.38,.42-51.47,.43-102.94,0-154.41-.09-10.35,2.96-13.71,13.52-13.61,50.85,.49,101.72,.5,152.57,0,10.7-.1,13.54,3.57,13.46,13.76-.4,51.47-.42,102.94,.02,154.41,.08,9.87-3.29,12.43-12.67,12.23-25.72-.54-51.47-.19-77.2-.19Z"/></svg>