<?xml version="1.0" encoding="UTF-8"?><svg id="a" xmlns="http://www.w3.org/2000/svg" viewBox="0 0 803.59 975.54"><defs><style>.b{fill:#fff;}.c{fill:#123a50;}</style></defs><path class="c" d="M0,649.03v-10.66c.56-3.24,.56-6.53,.93-9.78,.65-5.72,3.34-10.66,6.26-15.41,24.9-40.58,49.78-81.18,74.73-121.74,34.08-55.4,68.13-110.81,102.2-166.21,29.07-47.27,58.11-94.56,87.15-141.85,30.44-49.56,60.91-99.09,91.31-148.67,4.53-7.38,9.19-14.65,15.28-20.92C386.58,4.83,396.94,0,409.56,.33c.54,.01,1.11,.11,1.57-.33h8c2.98,.53,6.02,.44,9.02,.77,9.35,1.03,16.95,5.64,24.01,11.53,8.38,6.98,13.23,16.27,17.62,25.92,5.97,13.14,12.24,26.13,18.35,39.2,11.52,24.63,23.1,49.24,34.67,73.85,7.75,16.47,15.5,32.94,23.23,49.42,10.89,23.21,21.79,46.42,32.64,69.65,7.47,15.99,15.03,31.94,22.51,47.93,10.91,23.33,21.89,46.62,32.76,69.96,7.13,15.29,14.32,30.55,21.49,45.83,11.32,24.11,22.62,48.24,33.92,72.36,7.25,15.48,14.54,30.94,21.78,46.42,10.91,23.33,21.86,46.63,32.77,69.96,7.43,15.89,14.9,31.75,22.35,47.63,11.65,24.82,23.37,49.6,34.86,74.5,1.87,4.04,1.61,8.52,2.15,12.82,.11,.86-.28,1.78,.33,2.57v10.66c-.78,1.87-.61,3.95-.61,5.81,.09,17.72-18.46,39.14-36.9,44.58-70.8,20.92-141.53,42.08-212.29,63.14-67.57,20.1-135.14,40.19-202.7,60.33-31.7,9.45-63.42,18.87-95.14,28.27-4.86,1.44-9.84,1.8-14.85,2.12-1.08,.07-2.22-.34-3.24,.32h-8c-3.31-.63-6.69-.44-10.02-.87-12.2-1.58-21.74-7.89-29.49-16.99-9.18-10.77-16.14-23.1-23.74-34.96-11.2-17.47-22.44-34.92-33.66-52.39-22.25-34.66-44.52-69.3-66.73-103.97-15.63-24.4-31.3-48.76-46.89-73.18-4.9-7.67-10-15.2-14.51-23.12-3.29-5.78-4.15-12.03-4.52-18.47-.05-.86,.3-1.78-.32-2.57Z"/><path class="b" d="M283.92,903.15c-11.29,.61-21.82-10.29-18.72-23.06,5.29-21.77,9.4-43.83,13.94-65.79,11.07-53.47,22.11-106.95,33.15-160.43,7.97-38.59,15.89-77.18,23.89-115.76,14.23-68.68,28.49-137.36,42.74-206.04,9.42-45.42,18.85-90.85,28.27-136.27,4.38-21.08,8.8-42.15,13.13-63.24,1.19-5.79,4.64-9.22,10.28-10.43,4.3-.92,8.62-.57,12.85,.64,1.92,.55,3.09,1.78,3.95,3.68,5.95,13.13,12.03,26.21,18.09,39.29,9.79,21.13,19.57,42.27,29.39,63.39,6.64,14.28,13.36,28.53,20.03,42.8,10.65,22.81,21.28,45.64,31.93,68.45,5.11,10.96,10.26,21.9,15.39,32.84,12.02,25.6,24.06,51.2,36.06,76.81,11.11,23.7,22.16,47.43,33.27,71.13,7.49,15.97,15.1,31.88,22.55,47.86,11.39,24.43,22.68,48.9,34.05,73.34,6.64,14.28,13.39,28.51,20.02,42.8,8.87,19.11,17.48,38.35,26.6,57.34,3.45,7.17,4.26,13.91,.38,20.92-2.51,4.55-6.26,7.77-11.28,9.28-38.58,11.57-77.15,23.16-115.76,34.64-73.06,21.74-146.14,43.41-219.21,65.12-31.7,9.42-63.39,18.86-95.08,28.28-3.38,1.01-6.56,2.85-9.93,2.41Z"/></svg>