<?xml version="1.0" encoding="UTF-8"?><svg id="a" xmlns="http://www.w3.org/2000/svg" viewBox="0 0 527.86 420.3"><defs><style>.b{fill:#3068b6;}.c{fill:#132540;}.d{fill:#12243f;}.e{fill:#0e1a2e;}.f{fill:#20406d;}.g{fill:#142642;}.h{fill:#122540;}.i{fill:#274c81;}.j{fill:#274d81;}.k{fill:#24487a;}.l{fill:#142641;}.m{fill:#0c182a;}.n{fill:#24497b;}.o{fill:#234678;}.p{fill:#11213a;}.q{fill:#132641;}.r{fill:#162c4d;}</style></defs><path class="b" d="M267.13,.2c46.76,0,93.52,.18,140.27-.15,9.52-.07,16.76,1.97,23.65,9.36,29.71,31.84,59.83,63.31,90.4,94.33,7.86,7.98,8.9,12.78,.81,21.78-85.6,95.28-170.85,190.88-255.72,286.8-8.99,10.16-13.48,11.11-22.61,.01C164.97,316.42,85.58,220.86,5.83,125.61c-7.99-9.54-7.89-14.75,1.05-23.34,31.4-30.17,62.16-61.03,92.67-92.1C106.92,2.67,114.58-.1,124.94,0c47.39,.46,94.79,.2,142.19,.2Z"/><path class="j" d="M372.3,250.55c-18.22,26.26-41.89,47.85-62.14,72.37-31.55,3.07-63.06,8.04-94.74,1.61-11.6-4.24-16.47-15.22-23.63-23.89-20.47-24.79-40.82-49.68-62.15-73.74-2.98-3.36-5.3-7.12-5.86-11.72-.59-12.1,9.42-15.61,17.19-20.34,60-36.54,121.84-69.92,182.21-105.83,9.94-5.91,18.38-12.98,26.46-21.5,16.53-17.42,38.17-26.47,61.84-30.43,24.5,14.4,41.1,35.78,53.87,60.57-1.99,9.55-10.57,12.34-17.53,16.42-76.55,44.95-153.55,89.13-233.03,134.62,29.12-1.97,55.61,1.13,82.46-6.3,20.64-5.71,43.17-2.25,64.86-1.06,5.56,.3,9.85,2.78,10.18,9.23Z"/><path class="l" d="M409.44,41.9c-19.82,11.72-43.92,17.2-56.05,40.19-2.32,4.39-9.25,6.45-14.2,9.32-71.12,41.31-142.27,82.58-213.41,123.86-.86,2.44-2.29,2.85-4.31,1.23l.56-.83c-11.24-14.42-23.27-28.18-35.18-42.04-3.7-2.56-6.37-6.62-11.15-7.6-1.3-1.41-2.6-2.81-3.9-4.22-2.57-5.65,.94-9.16,4.45-12.66,24.06-19.36,51.84-32.69,78.39-47.98,41.52-23.92,81.54-50.7,126.59-68.1,5.94-1.13,11.49-5.06,17.94-2.41,38.28,1.06,76.56-.68,114.82,.96,1.48,1.03,2.96,2.05,4.45,3.08,1.99,8.63-6.25,4.48-8.99,7.2Z"/><path class="l" d="M372.3,250.55c-28.39,.3-56.16-1.43-85.1,4.77-30.82,6.61-64.16,1.49-97.87-2.89,90.29-52.32,180.57-104.64,270.86-156.96,2.46-2.5,4.34-6.48,8.94-3.5,3.03,3.61,5.32,7.86,8.62,11.18,8.15,8.22,7.36,15.17,.26,24.39-16.73,21.75-38.43,38.98-54.4,61.32-2.49,3.48-7.24,5.63-6.1,11.08-13,18.72-27.9,35.74-45.2,50.62Z"/><path class="g" d="M308.06,323.62c-6.6,10.31-14.72,19.26-24.09,27.11-.59,.21-1.2,.39-1.78,.65-9.72,4.33-14.65,19.66-27.82,14.84-14.59-5.35-21.75-19.88-31.01-31.34-4.67-5.77-3.11-11.79,5.53-13.58,26.38,1.36,52.92-3.15,79.16,2.32Z"/><path class="e" d="M40.14,107.49c26.6-27.71,53.12-55.51,81.99-80.91,1.05,.12,2.1,.23,3.15,.34,15.74,1.18,31.62-1.63,47.29,1.65,1.64,1.51,2.46,3.37,2.47,5.6-1.33,5.52-5.64,6.05-10.28,6.31-36.17,1.98-61.68,19.41-76.23,52.71-.47,1.08-1.79,1.75-2.77,2.55-9.01,5.45-17.53,11.61-25.6,18.4-8.04,1.91-17.02,6.64-20.01-6.64Z"/><path class="f" d="M295.62,31.32c-4.35,2.18-8.71,4.37-13.06,6.55-27.15,7.13-54.86,7.26-82.62,6.39-8.11-.26-16.64,.9-23.64-4.84-1.7-7.61-5.42-11.15-14.29-10.68-13.12,.69-26.38,1.29-39.54-.51l-.34-1.64c8.55-3.45,17.55-2.64,26.4-2.47,50.19,.95,100.37,2.11,150.55,3.19,1.33,3.47,.02,4.68-3.46,4.02Z"/><path class="h" d="M225.88,323.31c2.25,4.53,4.1,9.32,6.83,13.53,14.47,22.36,21.39,24.16,51.27,13.88q-27.72,33.31-55.6,.89c-7.89-9.11-16.34-17.7-22.19-28.37,6.58-3.44,13.14-3,19.69,.07Z"/><path class="k" d="M121.47,216.5c1.44-.41,2.87-.82,4.31-1.23,28.28,34.51,56.57,69.01,84.85,103.52-2.3,3.01-4.82,2.77-7.48,.5-25.53-30.2-51.14-60.32-76.44-90.71-2.69-3.24-3.53-8.02-5.23-12.08Z"/><path class="q" d="M417.5,199.93c-.66-14.1,11.63-20.57,18.34-30.17,5.43-7.77,12.97-14.14,19.91-20.77,16.99-16.23,27.53-33.69,12.26-56.81-.88-.91-1.17-1.82-.87-2.73,.3-.91,.6-1.36,.9-1.36,29.21,22.64,30.44,25.22,4.4,51.85-19.01,19.44-35.67,40.88-54.93,59.98Z"/><path class="m" d="M295.62,31.32c1.15-1.34,2.31-2.68,3.46-4.02,33.07-.33,66.14-.6,99.21-1.05,6-.08,11.27,1.23,15.7,5.37-39.47,4.94-78.93,5.47-118.37-.3Z"/><path class="o" d="M40.14,107.49c6.35,2.38,11.03-2.71,16.62-3.7,4.99,18.17,22.46,30.53,23.57,50.51-2.84,2.51-5.69,5.01-8.53,7.52-10.3-12.18-20.63-24.33-30.89-36.55-4.76-5.67-9.09-11.48-.78-17.78Z"/><path class="n" d="M468.03,88.1c0,1.36-.01,2.73-.02,4.09-2.61,1.09-5.21,2.19-7.82,3.28-13.14-21.43-27.18-42.01-50.74-53.57,2.99-2.4,5.99-4.8,8.99-7.2,18.45,16.02,34.35,34.41,49.59,53.4Z"/><path class="d" d="M87.51,169.37c14.11,13.49,29.38,26.12,34.52,46.3-18.04-4.85-22.68-23.28-34.69-34.24-2.18-4.05-3.05-8.09,.17-12.06Z"/><path class="r" d="M203.15,319.29c2.49-.17,4.99-.33,7.48-.5,26.44,.23,52.88,.43,79.32,.7,6.9,.07,13.92-.33,20.21,3.43-.63,.43-1.33,.66-2.1,.7-27.39-.1-54.79-.21-82.18-.31-6.56-.02-13.13-.04-19.69-.07-1.01-1.32-2.03-2.63-3.04-3.95Z"/><path class="p" d="M87.51,169.37c-.06,4.02-.11,8.04-.17,12.06-3.88-5.13-7.75-10.26-11.63-15.39,4.61-1.3,8.17,1.14,11.8,3.33Z"/><path class="i" d="M80.33,154.3c-8.17-7.71-16.59-15.19-24.45-23.2-9-9.17-4.92-18.38,.88-27.31,6.52-4.73,13.04-9.46,19.56-14.19,27.99-24.59,57.04-47.36,94.82-55.1,.59-1.06,1.1-2.16,1.52-3.29,1.5-1.65,2.52-1.39,3.06,.78,25.33,5.66,51.02,1.53,76.52,2.75,10.18,.49,20.54-1.06,30.33,3.14-67.41,38.81-134.82,77.62-202.23,116.43Z"/><path class="c" d="M171.14,34.5c-30.23,20.73-62.37,38.19-94.82,55.1,12.66-18.79,29.5-33.8,46.43-48.3,13.87-11.88,32.15-4.77,48.39-6.8Z"/><path class="m" d="M175.71,31.98c-.99-.39-2.01-.64-3.06-.78-16.71-1.23-33.69,1.91-50.18-2.98,17.8,.15,35.61,.3,53.41,.52,.2,0,.58,1.01,.54,1.52-.04,.59-.46,1.15-.71,1.72Z"/></svg>